# xmcd
#
# Track frame offsets:
#	150
#	22960
#	45330
#	68920
#	88173
#	106285
#	127268
#
# Disc length: 2073 seconds
#
# Revision: 1
# Processed by: cddbd v1.5.1PL0 Copyright (c) Steve Scherf et al.
# Submitted via: CDex 1.50Beta5
#
DISCID=58081707
DTITLE=Harry - 20030409 [CD2]
DYEAR=2003
DGENRE=Rock
TTITLE0=Oh! 神様
TTITLE1=Easy Come, Easy Go
TTITLE2=Pardon Me
TTITLE3=Knockin' On Your Door
TTITLE4=Around And Around
TTITLE5=Walkin The Dog
TTITLE6=One Day
EXTD=
EXTT0=
EXTT1=
EXTT2=
EXTT3=
EXTT4=
EXTT5=
EXTT6=
PLAYORDER=
